<?xml version="1.0" standalone="no"?>
<!DOCTYPE svg PUBLIC "-//W3C//DTD SVG 20010904//EN"
 "http://www.w3.org/TR/2001/REC-SVG-20010904/DTD/svg10.dtd">
<svg version="1.0" xmlns="http://www.w3.org/2000/svg"
 width="437.000000pt" height="437.000000pt" viewBox="0 0 437.000000 437.000000"
 preserveAspectRatio="xMidYMid meet">
<metadata>
Created by potrace 1.11, written by Peter Selinger 2001-2013
</metadata>
<g transform="translate(0.000000,437.000000) scale(0.100000,-0.100000)"
fill="#000000" stroke="none">
<path d="M0 4167 l0 -202 108 8 c119 10 139 19 105 47 -13 10 -23 20 -23 23 0
2 25 5 56 6 31 0 81 8 112 16 135 34 398 84 479 91 139 11 110 -2 -162 -71
-55 -14 -147 -30 -205 -36 -120 -13 -165 -30 -186 -71 -14 -28 -14 -30 15 -57
39 -36 117 -61 217 -68 66 -5 81 -9 80 -22 -1 -13 13 -17 84 -19 119 -4 145 6
242 95 61 56 84 72 86 60 4 -22 70 -23 98 -2 16 13 17 16 4 25 -8 5 -24 10
-35 10 -16 0 -11 8 23 36 43 36 51 59 32 94 -9 18 -20 19 -108 15 -85 -4 -90
-3 -42 5 30 6 71 16 90 24 19 8 64 20 100 27 69 13 100 25 100 38 0 5 -28 27
-62 50 -66 45 -53 46 47 4 61 -26 143 -40 171 -29 13 5 13 9 -2 31 -9 14 -26
25 -38 25 -11 1 3 9 33 20 30 11 56 22 59 25 3 3 -328 5 -736 5 l-742 0 0
-203z m1127 111 c-3 -8 -6 -5 -6 6 -1 11 2 17 5 13 3 -3 4 -12 1 -19z m-69
-194 c-4 -23 -26 -30 -34 -10 -8 20 15 51 29 37 5 -5 7 -17 5 -27z m-881 -40
c-3 -3 -12 -4 -19 -1 -8 3 -5 6 6 6 11 1 17 -2 13 -5z m818 -4 c3 -5 -1 -10
-10 -10 -9 0 -13 5 -10 10 3 6 8 10 10 10 2 0 7 -4 10 -10z"/>
<path d="M4040 4360 c-35 -12 -693 -31 -825 -24 -125 7 -176 -2 -190 -34 -11
-25 -25 -29 -25 -7 0 20 -16 19 -24 -1 -3 -9 -6 -17 -6 -19 0 -19 346 -179
485 -225 55 -18 102 -34 104 -36 2 -2 -1 -10 -8 -17 -16 -20 3 -33 79 -53 79
-20 340 -17 379 5 23 12 23 15 8 26 -10 7 -43 15 -75 19 -31 4 -71 10 -87 15
-26 7 -21 9 40 15 148 16 362 77 443 126 32 20 33 22 30 83 -4 77 -5 78 -161
43 -63 -14 -134 -25 -158 -25 l-44 1 51 8 c65 10 120 27 164 52 19 12 58 29
85 39 l50 18 -145 -1 c-80 0 -156 -3 -170 -8z"/>
<path d="M1403 4223 c-13 -2 -23 -8 -23 -13 0 -5 -6 -7 -13 -5 -7 3 -37 -3
-67 -13 -43 -15 -61 -27 -83 -59 -35 -53 -44 -95 -23 -115 20 -20 100 -32 160
-23 37 6 47 12 52 31 3 13 10 21 15 18 15 -9 10 33 -6 46 -8 7 -15 23 -15 36
0 19 5 23 22 21 20 -2 22 3 23 37 0 41 -5 46 -42 39z m-29 -146 c-3 -9 -10
-17 -15 -17 -11 0 -12 34 -2 44 11 11 24 -9 17 -27z"/>
<path d="M2800 4208 c0 -19 18 -43 25 -36 9 9 -4 48 -16 48 -5 0 -9 -6 -9 -12z"/>
<path d="M2975 4130 c-7 -12 2 -30 16 -30 5 0 9 9 9 20 0 21 -15 27 -25 10z"/>
<path d="M3040 4098 c0 -30 -1 -31 -15 -12 -14 18 -14 17 -15 -13 0 -23 -5
-33 -15 -33 -9 0 -15 -10 -15 -26 0 -19 -4 -25 -15 -21 -21 9 -28 -9 -26 -69
0 -36 -4 -56 -13 -61 -10 -6 -15 -33 -18 -95 -3 -78 -2 -86 14 -85 10 1 18 9
18 20 0 11 5 17 13 14 6 -2 11 -10 9 -17 -2 -9 5 -11 20 -6 13 3 47 11 76 17
45 11 52 15 52 36 0 16 5 23 13 20 6 -2 11 -15 10 -29 -1 -24 3 -26 67 -37
107 -17 117 -16 125 19 9 43 52 90 81 90 29 0 61 -30 70 -66 6 -24 9 -25 51
-19 24 3 70 15 101 26 59 21 103 32 280 71 115 26 108 34 -28 37 -152 3 -300
37 -509 117 -35 14 -64 24 -65 22 -21 -49 -40 -54 -44 -11 -3 29 -11 36 -108
87 -58 31 -107 56 -110 56 -2 0 -4 -14 -4 -32z m30 -144 c0 -8 -5 -12 -10 -9
-6 4 -8 11 -5 16 9 14 15 11 15 -7z m110 -16 c0 -16 -3 -19 -11 -11 -6 6 -8
16 -5 22 11 17 16 13 16 -11z m-160 -12 c0 -8 -4 -17 -9 -20 -10 -7 -23 19
-14 28 11 11 23 6 23 -8z m125 -51 c0 -16 -5 -30 -12 -32 -14 -5 -28 40 -18
57 12 19 30 4 30 -25z m135 15 c0 -11 -7 -20 -15 -20 -18 0 -19 12 -3 28 16
16 18 15 18 -8z m60 -34 c0 -31 -16 -50 -34 -43 -18 7 -21 30 -6 57 13 24 40
15 40 -14z m-115 -29 c0 -39 -19 -38 -23 2 -3 24 0 32 10 29 7 -3 13 -17 13
-31z m-225 -102 c0 -8 -4 -15 -10 -15 -5 0 -10 7 -10 15 0 8 5 15 10 15 6 0
10 -7 10 -15z"/>
<path d="M4295 4099 c-75 -40 -111 -64 -153 -103 -33 -30 -62 -75 -62 -95 0
-15 48 -37 110 -50 53 -12 57 -11 117 21 l63 33 0 113 c0 61 -3 112 -7 112 -5
0 -35 -14 -68 -31z"/>
<path d="M2804 4066 c2 -32 12 -66 20 -75 17 -19 21 -58 8 -78 -10 -16 -25 -5
-45 32 -13 25 -16 26 -17 10 -1 -15 -4 -13 -13 10 l-11 30 -6 -25 c-7 -23 -8
-23 -15 -6 -5 11 -3 26 3 37 17 27 15 39 -8 39 -17 0 -20 -7 -21 -42 l-1 -43
-12 29 -13 29 -7 -42 c-7 -48 -24 -54 -33 -11 -8 40 -23 48 -24 13 -2 -51 3
-76 22 -112 10 -20 19 -43 19 -52 0 -17 -30 -49 -46 -49 -16 -1 -112 -154
-129 -207 -11 -36 -22 -53 -33 -53 -29 0 -124 70 -118 86 3 8 0 14 -6 14 -7 0
-6 5 2 15 14 17 22 145 9 145 -5 0 -9 8 -9 18 0 27 -33 55 -47 41 -17 -17 -61
-19 -67 -4 -3 9 2 12 15 10 11 -2 22 2 26 11 9 25 -14 40 -57 38 -22 -1 -40 2
-40 7 0 6 -9 5 -20 -1 -11 -6 -20 -8 -20 -4 0 4 -9 -1 -20 -11 -11 -10 -23
-16 -26 -13 -12 13 -65 -57 -70 -94 -4 -21 -10 -41 -15 -44 -4 -2 -5 -15 0
-27 4 -12 6 -27 4 -34 -2 -7 0 -21 6 -32 7 -12 7 -21 1 -23 -6 -2 -4 -14 5
-30 7 -16 10 -28 4 -28 -5 0 -9 5 -9 10 0 19 -37 10 -66 -15 -16 -14 -36 -27
-44 -29 -107 -28 -110 -29 -140 -70 -76 -101 -101 -148 -95 -178 6 -23 3 -29
-18 -37 -28 -11 -28 -11 -52 -124 -14 -66 -23 -86 -60 -127 -38 -43 -43 -54
-38 -83 7 -44 -11 -77 -40 -74 -18 2 -25 -7 -43 -63 -11 -36 -20 -66 -19 -68
4 -5 166 -42 185 -42 29 0 60 59 54 102 -5 31 -2 39 25 63 16 15 35 44 42 64
17 56 100 231 109 231 16 0 28 -44 29 -105 0 -38 4 -84 7 -102 4 -19 1 -54 -6
-79 -12 -41 -11 -47 9 -74 28 -39 27 -43 -8 -26 -30 16 -26 19 -59 -46 -2 -4
20 -19 48 -33 48 -24 51 -28 44 -53 -4 -15 -8 -39 -7 -53 0 -24 -6 -29 -59
-45 -59 -17 -59 -18 -56 -53 3 -33 5 -36 33 -34 17 1 43 5 59 9 l29 7 -7 -44
c-25 -171 -25 -278 -2 -240 13 21 106 -42 106 -71 0 -7 5 -20 10 -28 7 -11 9
2 8 42 -2 32 -6 58 -10 58 -5 0 -8 5 -8 10 0 6 9 5 21 -2 18 -11 23 -11 26 0
4 10 8 10 19 1 11 -9 14 -9 14 1 0 7 12 -10 28 -37 37 -67 60 -98 68 -90 4 4
1 13 -6 22 -10 12 -10 15 4 15 10 0 26 -5 37 -10 13 -7 19 -7 19 0 0 5 -6 10
-14 10 -8 0 -31 17 -50 37 -30 33 -33 39 -18 44 25 9 57 -16 99 -79 47 -71 64
-108 57 -127 -10 -24 -20 -18 -39 25 -17 39 -55 82 -55 64 0 -6 4 -14 9 -20 5
-5 19 -42 30 -81 21 -71 40 -94 42 -53 2 29 3 32 19 60 8 14 35 72 61 129 26
57 49 97 52 90 4 -10 6 -9 6 4 1 17 21 25 21 8 0 -5 16 -8 35 -6 19 2 35 -1
35 -6 0 -6 8 -5 20 1 16 9 22 8 26 -5 3 -8 17 -15 29 -15 13 0 36 -5 51 -10
15 -6 31 -7 36 -2 4 4 -14 16 -42 26 -27 10 -50 22 -50 27 0 12 7 11 32 -2 14
-8 23 -8 31 0 7 7 16 7 29 0 14 -8 20 -6 25 7 6 16 7 16 14 -2 6 -15 8 -15 8
-3 2 38 -84 192 -142 256 -11 13 -18 25 -15 28 3 3 53 -1 112 -8 98 -13 110
-17 165 -55 62 -44 84 -52 75 -27 -7 18 7 20 24 3 6 -6 14 -9 17 -6 10 10 -6
35 -28 46 -31 14 -180 127 -216 163 -26 25 -34 28 -51 19 -29 -15 -25 -27 20
-72 l40 -40 -58 7 c-69 8 -154 36 -159 51 -2 7 12 15 32 18 19 4 35 10 35 14
0 16 -25 32 -48 32 -18 0 -23 4 -18 16 3 9 6 19 6 24 0 14 170 102 185 96 7
-2 11 -13 9 -23 -3 -11 9 -37 32 -66 28 -36 43 -47 65 -47 16 0 32 -7 38 -17
6 -10 11 -13 11 -6 0 6 18 31 41 54 39 40 40 45 34 87 -10 67 -23 95 -40 88
-10 -4 -15 1 -15 15 0 11 -21 43 -47 71 l-48 50 -6 89 c-6 84 -9 91 -44 135
l-38 46 -5 176 c-5 187 6 278 36 308 15 15 16 15 23 -2 6 -14 8 -11 8 14 1 17
5 32 10 32 6 0 11 -15 13 -32 3 -31 6 -33 43 -35 22 -2 47 0 55 4 8 3 23 5 33
4 20 -3 21 8 5 45 -10 22 -10 28 6 39 16 12 17 20 7 67 -5 29 -18 90 -27 136
-9 45 -20 82 -25 82 -5 0 -9 12 -9 28 0 15 -5 34 -11 42 -8 11 -9 -1 -5 -44z
m-124 -201 c0 -8 -4 -15 -9 -15 -13 0 -22 16 -14 24 11 11 23 6 23 -9z m135
-14 c-9 -16 -25 -3 -18 15 4 10 9 12 15 6 6 -6 7 -15 3 -21z m32 -38 c-3 -10
-5 -4 -5 12 0 17 2 24 5 18 2 -7 2 -21 0 -30z m-51 -35 c4 -24 1 -39 -10 -51
-9 -8 -16 -25 -16 -36 0 -12 -4 -21 -9 -21 -17 0 -17 102 -1 132 17 33 29 25
36 -24z m-610 -71 l61 2 21 -50 c40 -90 24 -188 -38 -238 -56 -45 -78 -47
-127 -11 -61 45 -83 98 -76 183 3 37 9 67 13 67 4 0 10 14 14 31 5 29 8 30 38
22 18 -4 60 -7 94 -6z m-172 -199 c14 -20 14 -24 -1 -40 -32 -36 -62 -13 -49
37 8 31 30 32 50 3z m352 -30 c-1 -36 -22 -45 -40 -16 -8 13 -6 21 9 36 26 25
32 20 31 -20z m36 -95 c15 -18 15 -156 0 -184 -21 -40 -76 -71 -133 -75 -47
-3 -68 -9 -58 -17 2 -2 36 -1 74 3 89 8 101 -1 80 -61 -9 -23 -21 -49 -27 -57
-7 -8 -13 -22 -13 -31 0 -9 -8 -16 -20 -16 -14 0 -20 -7 -20 -22 0 -24 -9 -36
-30 -39 -14 -2 -19 8 -16 29 0 4 -9 7 -21 6 -13 0 -17 -3 -10 -6 23 -9 13 -33
-13 -31 -26 2 -34 23 -12 31 14 6 8 7 -76 10 -43 2 -62 7 -72 20 -11 16 -16
16 -34 6 -24 -16 -29 -12 -37 31 -6 30 -5 33 11 26 18 -7 18 -6 1 13 -10 11
-21 41 -23 66 -6 48 6 57 45 36 23 -12 102 -20 102 -10 0 8 -15 13 -67 24 -18
4 -46 19 -63 35 -31 29 -31 30 -29 120 2 49 6 90 9 90 4 0 5 12 2 27 l-5 26
36 -27 c31 -24 38 -26 43 -12 8 20 24 11 24 -13 0 -24 36 -55 55 -47 9 3 13 2
10 -4 -3 -6 -2 -10 4 -10 5 0 16 -7 25 -15 14 -15 46 -11 46 6 0 5 7 9 16 9
29 0 69 37 72 66 3 36 11 44 19 16 5 -21 5 -21 47 7 40 29 41 29 44 8 2 -12 8
-27 14 -34z m-378 -459 c8 -3 12 -12 10 -19 -7 -17 -34 -8 -34 11 0 16 2 16
24 8z m296 2 c0 -3 -4 -8 -10 -11 -5 -3 -10 -1 -10 4 0 6 5 11 10 11 6 0 10
-2 10 -4z m-230 -31 c0 -8 -9 -15 -20 -15 -11 0 -20 7 -20 15 0 8 9 15 20 15
11 0 20 -7 20 -15z m70 10 c0 -2 -9 -9 -19 -14 -14 -8 -22 -7 -31 4 -11 13 -8
15 19 15 17 0 31 -2 31 -5z m78 -62 c4 -14 -25 -17 -53 -7 -12 5 -13 9 -5 14
18 11 53 6 58 -7z m-155 0 c-7 -2 -21 -2 -30 0 -10 3 -4 5 12 5 17 0 24 -2 18
-5z m72 -3 c-3 -5 -15 -10 -26 -10 -10 0 -19 5 -19 10 0 6 12 10 26 10 14 0
23 -4 19 -10z m412 -87 c-23 -12 -45 -22 -49 -23 -3 0 5 27 19 60 l26 60 23
-38 23 -37 -42 -22z m-467 48 c0 -16 -28 -20 -40 -5 -10 12 -8 14 14 14 14 0
26 -4 26 -9z m66 -1 c7 0 11 -6 8 -14 -4 -11 -10 -11 -30 -2 -26 12 -34 32 -8
22 9 -3 22 -6 30 -6z m109 0 c3 -6 -1 -7 -9 -4 -18 7 -21 14 -7 14 6 0 13 -4
16 -10z m-37 -12 c-5 -15 -48 -24 -48 -10 0 14 12 22 33 22 10 0 17 -5 15 -12z
m-80 -66 c2 -7 -2 -10 -12 -6 -9 3 -16 11 -16 16 0 13 23 5 28 -10z m39 -8
c-3 -3 -12 -4 -19 -1 -8 3 -5 6 6 6 11 1 17 -2 13 -5z m463 -174 c8 -5 11 -12
8 -16 -4 -3 -14 1 -23 10 -18 17 -9 21 15 6z m35 -30 c3 -5 -1 -10 -10 -10 -9
0 -13 5 -10 10 3 6 8 10 10 10 2 0 7 -4 10 -10z m25 -30 c0 -5 -4 -10 -10 -10
-5 0 -10 5 -10 10 0 6 5 10 10 10 6 0 10 -4 10 -10z m-899 -42 c-11 -10 -13
-10 -7 0 4 6 2 12 -4 12 -6 0 -8 5 -4 11 4 8 9 8 17 0 8 -8 7 -14 -2 -23z
m959 2 c0 -5 -5 -10 -11 -10 -5 0 -7 5 -4 10 3 6 8 10 11 10 2 0 4 -4 4 -10z
m40 -30 c0 -5 -4 -10 -10 -10 -5 0 -10 5 -10 10 0 6 5 10 10 10 6 0 10 -4 10
-10z m30 -20 c0 -5 -4 -10 -10 -10 -5 0 -10 5 -10 10 0 6 5 10 10 10 6 0 10
-4 10 -10z m-791 -217 c-1 -45 -1 -46 -10 -18 -8 27 -4 65 7 65 2 0 4 -21 3
-47z m51 -4 c0 -13 -7 -19 -22 -19 -16 0 -19 3 -11 11 6 6 9 18 6 25 -4 10 0
12 11 8 9 -3 16 -15 16 -25z m140 -30 c0 5 6 11 13 14 9 3 12 -12 12 -58 l1
-63 -33 36 c-31 36 -43 59 -23 47 6 -3 10 -1 10 4 0 6 -4 11 -8 11 -5 0 -17 7
-28 15 -17 14 -15 14 19 1 20 -8 37 -11 37 -7z"/>
<path d="M2051 3601 c-18 -11 -5 -48 20 -62 11 -6 33 -7 50 -4 24 5 29 3 29
-12 1 -16 1 -17 10 -1 10 16 52 19 66 5 8 -7 44 36 44 52 0 5 -8 14 -17 19
-12 7 -21 5 -32 -10 -16 -19 -71 -33 -71 -17 0 5 -7 6 -15 3 -8 -3 -27 3 -43
14 -17 13 -33 17 -41 13z"/>
<path d="M2148 3463 c7 -3 16 -2 19 1 4 3 -2 6 -13 5 -11 0 -14 -3 -6 -6z"/>
<path d="M2116 3114 c-5 -14 -4 -15 9 -4 17 14 19 20 6 20 -5 0 -12 -7 -15
-16z"/>
<path d="M1710 4043 c0 -12 5 -25 10 -28 13 -8 13 15 0 35 -8 12 -10 11 -10
-7z"/>
<path d="M1820 4008 c0 -16 4 -28 9 -28 18 0 20 17 6 36 -14 18 -14 18 -15 -8z"/>
<path d="M1200 3960 c-25 -4 -70 -16 -100 -27 -47 -15 -55 -22 -55 -43 0 -16
-6 -26 -17 -28 -13 -2 -18 3 -18 17 0 12 -2 21 -5 21 -12 0 -105 -51 -162 -89
-34 -22 -78 -48 -98 -58 -33 -16 -36 -20 -31 -47 9 -43 18 -49 82 -51 80 -3
234 41 220 64 -3 5 1 14 8 20 10 9 16 9 21 1 5 -8 14 -6 31 5 13 8 24 11 24 5
0 -14 43 -13 146 5 128 22 122 19 122 70 0 52 6 63 38 75 29 11 32 36 4 36
-13 0 -19 -5 -16 -13 3 -7 1 -13 -4 -13 -6 0 -10 7 -10 15 0 18 -25 19 -69 4
-35 -12 -52 -6 -33 13 28 28 9 33 -78 18z m151 -63 c-8 -8 -11 -7 -11 4 0 20
13 34 18 19 3 -7 -1 -17 -7 -23z m-221 -32 c0 -8 -4 -15 -10 -15 -5 0 -10 7
-10 15 0 8 5 15 10 15 6 0 10 -7 10 -15z m-50 -45 c0 -20 -5 -30 -15 -30 -10
0 -15 10 -15 30 0 20 5 30 15 30 10 0 15 -10 15 -30z m127 -12 c-3 -8 -6 -5
-6 6 -1 11 2 17 5 13 3 -3 4 -12 1 -19z m110 0 c-3 -8 -6 -5 -6 6 -1 11 2 17
5 13 3 -3 4 -12 1 -19z m-417 -49 c0 -11 -4 -17 -10 -14 -5 3 -10 13 -10 21 0
8 5 14 10 14 6 0 10 -9 10 -21z"/>
<path d="M2565 3961 c-3 -5 -1 -12 5 -16 5 -3 10 1 10 9 0 18 -6 21 -15 7z"/>
<path d="M0 3818 c0 -152 -1 -151 105 -163 22 -3 61 -7 88 -10 26 -3 47 -2 47
2 0 4 15 7 32 6 18 -1 47 -2 63 -2 23 -1 27 -4 15 -11 -11 -7 -6 -8 18 -5 19
2 41 12 49 22 8 10 12 12 8 6 -3 -7 -3 -13 2 -13 19 0 200 83 217 100 19 18
18 19 -15 24 -19 3 -66 7 -104 10 -110 9 -169 30 -223 82 -26 25 -56 50 -66
56 -11 6 -68 13 -128 16 l-108 5 0 -125z"/>
<path d="M1600 3930 c0 -5 5 -10 10 -10 6 0 10 5 10 10 0 6 -4 10 -10 10 -5 0
-10 -4 -10 -10z"/>
<path d="M1945 3920 c3 -5 8 -10 11 -10 2 0 4 5 4 10 0 6 -5 10 -11 10 -5 0
-7 -4 -4 -10z"/>
<path d="M1721 3904 c0 -11 3 -14 6 -6 3 7 2 16 -1 19 -3 4 -6 -2 -5 -13z"/>
<path d="M1980 3899 c0 -5 5 -7 10 -4 6 3 10 8 10 11 0 2 -4 4 -10 4 -5 0 -10
-5 -10 -11z"/>
<path d="M1819 3855 c-1 -28 -3 -62 -5 -77 -1 -16 1 -28 7 -28 5 0 9 24 9 54
0 34 5 56 13 59 9 3 7 10 -5 23 -17 18 -18 16 -19 -31z"/>
<path d="M1750 3868 c0 -17 -5 -28 -14 -28 -10 0 -12 -11 -8 -47 2 -27 6 -50
8 -52 2 -2 15 -1 29 3 21 5 24 10 15 26 -5 10 -10 36 -10 57 0 21 -5 45 -10
53 -8 12 -10 9 -10 -12z m7 -105 c-4 -17 -4 -17 -12 0 -4 9 -4 25 0 35 8 16 8
16 12 0 3 -10 3 -26 0 -35z"/>
<path d="M4304 3848 c-26 -18 -42 -34 -34 -35 8 -1 34 -3 58 -5 l42 -4 0 38
c0 21 -4 38 -8 38 -5 0 -31 -15 -58 -32z"/>
<path d="M1586 3861 c-4 -6 -3 -18 2 -27 8 -15 10 -14 16 2 8 20 -8 42 -18 25z"/>
<path d="M1656 3853 c-4 -9 -4 -36 0 -60 5 -37 4 -43 -11 -43 -12 0 -15 -5
-11 -16 3 -9 6 -19 6 -24 0 -5 14 -3 30 3 22 8 30 18 30 35 0 13 -4 20 -10 17
-6 -4 -10 13 -10 44 0 51 -13 74 -24 44z"/>
<path d="M1951 3854 c0 -11 3 -14 6 -6 3 7 2 16 -1 19 -3 4 -6 -2 -5 -13z"/>
<path d="M2581 3854 c0 -11 3 -14 6 -6 3 7 2 16 -1 19 -3 4 -6 -2 -5 -13z"/>
<path d="M2540 3775 c0 -16 6 -25 15 -25 9 0 15 9 15 25 0 16 -6 25 -15 25 -9
0 -15 -9 -15 -25z"/>
<path d="M4130 3793 c-82 -8 -175 -24 -184 -32 -6 -4 -37 -18 -69 -31 l-59
-23 36 -12 c55 -19 129 -29 121 -16 -9 15 5 14 55 -4 50 -18 61 -19 40 -4 -12
9 -11 9 5 4 11 -4 39 -11 63 -15 40 -6 42 -5 37 14 -3 12 -2 15 1 9 10 -22 39
-14 62 16 15 21 32 30 64 35 52 8 77 21 63 35 -9 8 -165 33 -189 29 -6 0 -27
-3 -46 -5z"/>
<path d="M1265 3729 c-22 -4 -66 -8 -97 -8 -72 -1 -108 -14 -108 -41 0 -11 -5
-20 -11 -20 -5 0 -7 -5 -3 -11 4 -7 9 -7 13 -1 3 5 13 8 22 7 10 -2 15 5 15
18 -1 11 5 22 13 25 10 3 13 -2 9 -22 -3 -15 -3 -24 0 -21 3 2 12 -1 20 -8 11
-8 14 -8 9 0 -9 15 64 13 75 -2 5 -6 8 -5 8 3 0 6 12 12 26 12 14 0 23 -4 20
-9 -4 -5 3 -7 14 -4 11 3 20 0 20 -6 0 -6 5 -11 11 -11 5 0 7 5 4 10 -3 6 3
10 15 10 12 0 19 -4 15 -9 -3 -5 -1 -13 5 -16 6 -4 9 -3 8 2 -3 13 12 53 21
53 16 0 20 -13 9 -34 -10 -19 -8 -19 18 4 16 14 23 18 17 10 -18 -20 -16 -35
2 -20 17 14 21 75 5 65 -6 -4 -8 -11 -5 -16 4 -5 -1 -9 -9 -9 -9 0 -16 9 -16
20 0 36 -58 47 -145 29z"/>
<path d="M3566 3714 c-38 -7 -71 -15 -73 -18 -2 -2 -1 -20 3 -40 5 -31 8 -34
18 -21 12 16 126 38 151 29 7 -3 16 0 21 7 4 8 3 10 -4 5 -7 -4 -12 -3 -12 3
0 20 22 22 27 2 3 -12 9 -21 13 -21 10 0 50 49 50 61 0 13 -115 9 -194 -7z"/>
<path d="M1747 3703 c-14 -4 -17 -13 -15 -44 2 -45 15 -52 20 -11 3 30 23 33
23 2 0 -10 4 -22 8 -26 9 -9 9 32 1 64 -4 12 -9 21 -13 21 -3 -1 -14 -3 -24
-6z"/>
<path d="M3096 3688 c5 -7 2 -9 -9 -5 -10 4 -14 2 -11 -6 3 -10 35 -14 63 -8
2 1 -2 8 -9 16 -15 18 -45 21 -34 3z"/>
<path d="M1811 3674 c0 -11 3 -14 6 -6 3 7 2 16 -1 19 -3 4 -6 -2 -5 -13z"/>
<path d="M1690 3650 c0 -11 2 -20 4 -20 2 0 6 9 9 20 3 11 1 20 -4 20 -5 0 -9
-9 -9 -20z"/>
<path d="M3156 3662 c-3 -5 1 -9 9 -9 8 0 15 4 15 9 0 4 -4 8 -9 8 -6 0 -12
-4 -15 -8z"/>
<path d="M1012 3651 c-11 -7 -11 -9 0 -14 9 -3 15 1 15 9 0 8 -1 14 -1 14 -1
0 -7 -4 -14 -9z"/>
<path d="M588 3643 c7 -3 16 -2 19 1 4 3 -2 6 -13 5 -11 0 -14 -3 -6 -6z"/>
<path d="M1736 2713 c-6 -14 -5 -15 5 -6 7 7 10 15 7 18 -3 3 -9 -2 -12 -12z"/>
<path d="M1750 2695 c-8 -9 -8 -15 -2 -15 12 0 26 19 19 26 -2 2 -10 -2 -17
-11z"/>
<path d="M2681 2601 c-7 -5 -9 -11 -4 -14 5 -3 15 -2 22 2 7 5 9 11 4 14 -5 3
-15 2 -22 -2z"/>
<path d="M1453 2576 c-3 -5 -1 -6 5 -2 5 3 12 1 14 -5 2 -7 8 -6 17 4 11 14 9
16 -9 14 -12 -1 -24 -6 -27 -11z"/>
<path d="M1615 2580 c-3 -4 8 -10 25 -12 16 -2 27 -1 25 3 -7 11 -44 18 -50 9z"/>
<path d="M1768 2572 c-3 -12 2 -24 14 -31 17 -11 18 -10 8 9 -6 11 -8 25 -5
30 3 6 2 10 -3 10 -5 0 -12 -8 -14 -18z"/>
<path d="M1595 2470 c5 -14 2 -20 -10 -20 -9 0 -13 5 -10 10 3 6 1 10 -5 10
-7 0 -9 -8 -5 -20 5 -14 2 -20 -9 -20 -9 0 -16 5 -16 10 0 6 -5 10 -10 10 -6
0 -8 -11 -4 -25 5 -19 2 -25 -10 -25 -9 0 -16 4 -16 8 0 5 -7 9 -15 9 -11 0
-12 -4 -5 -11 14 -14 12 -26 -5 -26 -8 0 -15 5 -15 10 0 6 -4 10 -9 10 -5 0
-7 -8 -4 -19 3 -10 0 -22 -6 -26 -15 -9 -53 4 -46 16 4 5 -1 9 -9 9 -8 0 -18
-6 -22 -12 -4 -7 -3 -10 1 -5 5 4 19 -2 31 -14 l23 -22 83 52 c111 70 126 82
110 88 -6 3 -10 9 -6 14 3 5 0 9 -6 9 -7 0 -9 -8 -5 -20z"/>
<path d="M3087 2313 c-34 -33 -77 -123 -77 -158 0 -21 24 -19 44 4 10 11 28
21 40 23 11 2 20 9 19 15 -3 13 42 -6 185 -80 169 -87 198 -97 219 -80 10 8
13 12 6 9 -6 -4 -13 -2 -15 3 -1 5 -52 35 -113 66 -60 32 -144 77 -186 101
-42 24 -81 44 -88 44 -8 0 -7 5 3 16 17 16 22 74 8 74 -5 0 -25 -16 -45 -37z"/>
<path d="M2986 2323 c-3 -4 -6 -23 -6 -43 0 -29 4 -36 20 -37 11 -1 20 4 20
13 0 8 5 14 10 14 6 0 10 6 10 14 0 16 -45 48 -54 39z"/>
<path d="M1246 2305 c-17 -13 -18 -15 -2 -21 11 -4 15 -13 11 -25 -7 -20 2
-24 21 -11 12 7 7 72 -5 72 -3 0 -15 -7 -25 -15z"/>
<path d="M1310 2296 c0 -20 13 -27 30 -15 13 8 13 10 0 19 -21 14 -30 12 -30
-4z"/>
<path d="M1118 2256 c-27 -20 -21 -36 12 -36 33 0 37 7 18 33 -11 13 -16 14
-30 3z"/>
<path d="M1191 2184 c0 -11 3 -14 6 -6 3 7 2 16 -1 19 -3 4 -6 -2 -5 -13z"/>
<path d="M3135 2170 c-4 -6 -4 -10 -1 -10 2 0 11 -3 20 -6 9 -3 16 -2 16 4 0
14 -28 23 -35 12z"/>
<path d="M1850 2120 c0 -5 5 -10 11 -10 5 0 7 5 4 10 -3 6 -8 10 -11 10 -2 0
-4 -4 -4 -10z"/>
<path d="M2356 2028 c-22 -30 -6 -35 49 -13 25 9 57 15 71 13 28 -3 28 -3 -20
-48 -33 -31 -60 -71 -87 -129 -37 -80 -49 -112 -30 -82 8 12 11 9 16 -11 5
-20 11 -24 27 -20 16 4 19 10 14 35 -4 17 -11 34 -17 38 -14 8 6 50 23 46 6
-1 15 9 19 23 l7 25 7 -22 c7 -23 25 -32 25 -13 0 6 12 8 26 6 21 -4 24 -3 14
10 -7 7 -18 14 -25 14 -12 0 -45 31 -45 43 0 4 9 7 21 7 11 0 18 4 15 9 -4 5
2 7 13 4 13 -3 20 2 24 18 l6 22 21 -24 20 -24 -10 28 c-5 16 -10 31 -10 34 0
14 43 -34 56 -62 l13 -30 -4 28 c-3 15 -7 38 -10 52 -4 19 -1 25 11 25 10 0
14 3 11 6 -4 4 -58 9 -121 11 -110 3 -115 3 -130 -19z"/>
<path d="M2636 2028 c3 -4 12 -8 21 -8 8 0 27 -8 41 -18 51 -35 52 -35 41 -2
-8 23 -17 30 -37 31 -15 0 -37 2 -49 3 -12 1 -20 -1 -17 -6z"/>
<path d="M2590 1911 c0 -6 5 -13 10 -16 6 -3 10 1 10 9 0 9 -4 16 -10 16 -5 0
-10 -4 -10 -9z"/>
<path d="M2550 1863 c0 -13 29 -38 35 -31 3 3 -4 13 -15 23 -11 10 -20 13 -20
8z"/>
<path d="M2265 1641 c-18 -36 -19 -49 -3 -33 7 7 17 8 30 1 13 -7 18 -6 18 3
0 9 3 9 10 -2 5 -8 12 -11 16 -8 3 4 -7 21 -24 38 l-31 31 -16 -30z"/>
</g>
</svg>
