<?xml version="1.0" standalone="no"?>
<!DOCTYPE svg PUBLIC "-//W3C//DTD SVG 20010904//EN"
 "http://www.w3.org/TR/2001/REC-SVG-20010904/DTD/svg10.dtd">
<svg version="1.0" xmlns="http://www.w3.org/2000/svg"
 width="512.000000pt" height="512.000000pt" viewBox="0 0 512.000000 512.000000"
 preserveAspectRatio="xMidYMid meet">
<metadata>
Created by potrace 1.11, written by Peter Selinger 2001-2013
</metadata>
<g transform="translate(0.000000,512.000000) scale(0.100000,-0.100000)"
fill="#000000" stroke="none">
<path d="M0 4879 l0 -241 33 6 c17 3 83 8 144 12 121 7 147 18 114 48 -10 9
-32 21 -47 26 -23 6 -12 8 47 9 41 1 111 10 155 22 77 20 290 65 449 94 47 9
128 14 195 13 119 -1 166 5 212 28 15 8 44 16 65 19 82 12 148 32 151 46 3 15
-70 70 -135 103 -18 9 -33 18 -33 21 0 5 155 -52 193 -71 33 -18 136 -30 162
-21 13 6 14 10 3 29 -17 30 -28 38 -56 38 -32 0 -17 20 16 21 15 0 45 9 67 19
39 18 24 19 -847 19 l-888 1 0 -241z m1356 124 c-11 -11 -19 6 -11 24 8 17 8
17 12 0 3 -10 2 -21 -1 -24z m-1153 -260 c-7 -2 -21 -2 -30 0 -10 3 -4 5 12 5
17 0 24 -2 18 -5z"/>
<path d="M4778 5110 c-20 -12 -611 -32 -908 -31 -259 1 -278 -2 -292 -40 -12
-35 -26 -37 -37 -7 l-8 22 -11 -21 c-9 -16 -8 -24 6 -36 42 -38 403 -203 552
-252 139 -46 138 -45 114 -62 -16 -11 -16 -15 -4 -27 35 -33 124 -46 313 -46
184 0 247 9 247 35 0 18 -48 32 -134 40 -100 9 -112 21 -30 29 156 16 343 64
477 123 l57 26 0 88 c0 69 -3 89 -14 89 -8 0 -69 -13 -137 -29 -145 -34 -195
-40 -229 -30 -21 6 -19 7 15 8 67 2 126 19 225 65 52 24 106 48 120 54 19 8
-14 11 -140 11 -91 0 -172 -4 -182 -9z"/>
<path d="M1656 4935 c-8 -8 -21 -13 -28 -10 -8 3 -43 -5 -78 -17 -56 -20 -68
-29 -93 -69 -36 -58 -46 -119 -23 -138 20 -17 137 -26 200 -17 40 6 46 10 46
32 0 13 5 23 12 22 21 -5 20 33 -1 51 -12 10 -21 30 -21 44 0 28 15 44 25 27
3 -5 12 -10 19 -10 8 0 12 17 12 50 0 48 -1 50 -27 50 -15 0 -34 -7 -43 -15z
m-12 -134 c8 -12 -3 -41 -15 -41 -5 0 -9 11 -9 25 0 25 14 34 24 16z"/>
<path d="M3315 4938 c-4 -9 0 -26 8 -38 14 -21 15 -21 20 -1 3 11 -1 28 -8 38
-13 17 -14 17 -20 1z"/>
<path d="M1080 4853 c-14 -2 -80 -20 -146 -39 -158 -44 -304 -74 -365 -74
-155 0 -257 -81 -186 -148 48 -45 115 -65 235 -70 107 -4 113 -5 109 -24 -7
-27 27 -38 118 -38 115 0 162 21 268 116 91 82 115 98 103 69 -10 -26 87 -24
116 2 24 21 14 33 -28 33 -44 0 -43 10 6 40 51 31 69 72 49 109 -16 28 -8 27
-159 20 -30 -1 -64 0 -75 3 -11 3 -31 3 -45 1z m194 -48 c8 -21 -3 -45 -20
-45 -8 0 -17 7 -20 15 -8 21 2 45 20 45 7 0 16 -7 20 -15z m-74 -75 c0 -5 -7
-10 -15 -10 -8 0 -15 5 -15 10 0 6 7 10 15 10 8 0 15 -4 15 -10z"/>
<path d="M3522 4828 c5 -32 28 -35 28 -4 0 17 -5 26 -16 26 -10 0 -14 -7 -12
-22z"/>
<path d="M3600 4811 c0 -17 -4 -33 -10 -36 -5 -3 -10 1 -10 9 0 9 -4 16 -10
16 -5 0 -10 -16 -10 -35 0 -24 -5 -35 -14 -35 -8 0 -16 -10 -18 -22 -2 -15
-10 -23 -22 -23 -25 0 -34 -27 -35 -102 -1 -49 -4 -63 -16 -63 -12 0 -15 -18
-14 -107 0 -60 3 -103 5 -96 3 7 11 10 19 7 8 -3 12 1 12 12 -1 10 6 20 16 22
11 2 17 -3 17 -13 0 -14 7 -16 43 -10 23 4 50 11 59 16 9 5 28 9 41 9 19 0 24
4 21 18 -5 22 11 47 25 38 15 -9 14 -39 -1 -54 -9 -9 -7 -12 12 -11 14 1 60
-6 103 -15 43 -9 84 -16 91 -16 6 0 19 22 28 48 34 94 98 121 150 63 15 -17
28 -41 28 -52 0 -19 4 -20 53 -14 28 4 104 24 167 45 63 21 142 41 174 45 33
4 71 11 85 17 14 5 58 15 96 22 l70 13 -60 6 c-33 4 -125 11 -205 17 -136 8
-156 12 -315 63 -94 30 -194 64 -222 76 -29 11 -53 20 -54 18 0 -1 -2 -10 -4
-21 -5 -24 -22 -42 -32 -32 -4 3 -6 21 -5 39 2 30 -2 35 -45 56 -27 12 -83 43
-125 67 -42 24 -80 44 -83 44 -3 0 -5 -13 -5 -29z m30 -176 c0 -8 -4 -15 -10
-15 -5 0 -10 7 -10 15 0 8 5 15 10 15 6 0 10 -7 10 -15z m130 -26 c0 -11 -4
-17 -10 -14 -5 3 -10 13 -10 21 0 8 5 14 10 14 6 0 10 -9 10 -21z m-190 -14
c0 -16 -6 -25 -15 -25 -9 0 -15 9 -15 25 0 16 6 25 15 25 9 0 15 -9 15 -25z
m152 -40 c6 -29 -14 -61 -30 -51 -13 8 -16 58 -5 69 14 15 31 6 35 -18z m155
-9 c-8 -19 -37 -21 -37 -3 0 7 5 18 12 25 15 15 33 -1 25 -22z m67 -12 c14
-37 -10 -79 -39 -68 -29 11 -15 84 15 84 10 0 21 -7 24 -16z m-126 -42 c2 -13
1 -30 -2 -39 -10 -25 -36 4 -36 39 0 23 4 29 18 26 9 -2 18 -14 20 -26z m-268
-133 c0 -24 -23 -21 -28 4 -2 10 3 17 12 17 10 0 16 -9 16 -21z"/>
<path d="M3310 4792 c0 -44 17 -101 37 -120 14 -15 17 -70 5 -90 -13 -20 -40
-3 -47 28 -7 32 -35 62 -36 39 0 -8 -4 -5 -8 6 -7 17 -9 16 -15 -10 -6 -22 -9
-26 -17 -14 -12 19 -11 59 1 59 19 0 10 38 -10 43 -17 4 -20 0 -21 -31 0 -21
-4 -46 -9 -57 -7 -17 -9 -15 -9 12 -1 38 -21 56 -21 19 0 -34 -19 -81 -29 -70
-4 5 -13 29 -20 52 -7 24 -15 42 -17 39 -3 -3 -5 -31 -5 -63 -1 -45 6 -72 27
-113 26 -49 27 -55 13 -80 -8 -14 -25 -27 -37 -29 -12 -2 -22 -8 -22 -14 0 -5
-20 -35 -44 -66 -50 -65 -77 -116 -97 -184 -17 -60 -32 -61 -117 -7 -51 32
-62 44 -57 60 4 12 2 19 -6 19 -10 0 -10 3 -1 12 7 7 12 22 12 33 0 12 3 25 7
29 10 10 10 50 0 57 -4 3 -3 18 2 32 9 22 8 27 -4 27 -9 0 -15 9 -15 21 0 12
-8 23 -19 26 -11 3 -22 12 -24 22 -4 14 -5 14 -6 -1 0 -10 -9 -19 -18 -19 -60
-4 -66 -3 -69 13 -1 11 3 15 12 11 8 -3 14 1 14 8 0 11 2 11 8 2 6 -9 13 -7
26 9 18 20 18 21 -3 15 -14 -3 -21 0 -21 9 0 11 -7 13 -26 8 -16 -4 -25 -3
-21 3 5 7 -66 10 -83 3 -3 -1 -9 -3 -15 -4 -5 0 -20 -7 -31 -13 -12 -7 -23
-10 -26 -8 -9 9 -64 -61 -76 -97 -14 -40 -10 -58 13 -58 8 0 17 -4 20 -10 4
-7 -2 -7 -19 0 -14 5 -28 5 -31 1 -8 -15 3 -102 16 -117 8 -10 8 -14 0 -14
-13 0 -3 -53 11 -58 11 -5 10 -22 -1 -22 -5 0 -12 9 -16 20 -5 16 -10 18 -33
9 -15 -6 -38 -21 -52 -33 -15 -14 -54 -30 -95 -40 -60 -15 -76 -23 -105 -57
-56 -66 -127 -193 -120 -215 10 -28 0 -54 -20 -54 -24 0 -36 -18 -44 -65 -20
-126 -39 -174 -89 -227 -47 -50 -49 -55 -44 -98 7 -57 -6 -80 -43 -80 -27 0
-30 -4 -53 -77 -13 -43 -23 -79 -21 -81 6 -8 218 -52 230 -48 7 3 23 24 34 47
17 31 19 47 12 63 -12 27 -1 54 37 90 19 18 39 54 52 95 12 36 30 77 40 90 11
13 19 30 19 38 0 17 52 113 61 113 29 0 52 -238 34 -355 -6 -44 -4 -52 14 -69
12 -11 21 -26 21 -34 0 -12 -4 -12 -25 2 -33 22 -40 20 -54 -11 -9 -20 -15
-24 -21 -14 -4 8 -13 10 -19 6 -16 -9 19 -39 82 -72 48 -24 49 -25 41 -61 -4
-20 -8 -48 -9 -62 -1 -21 -11 -28 -68 -49 l-67 -23 0 -39 c0 -50 16 -57 83
-36 28 9 53 15 55 13 2 -3 -1 -46 -7 -98 -10 -97 -21 -243 -14 -195 4 24 6 26
19 12 9 -8 24 -15 35 -15 11 0 17 -4 14 -10 -3 -5 1 -10 9 -10 9 0 16 -7 16
-15 0 -8 5 -15 10 -15 6 0 10 -5 10 -11 0 -6 7 -17 15 -25 8 -9 15 -25 15 -37
0 -15 3 -18 11 -10 9 9 0 61 -27 154 -3 11 3 15 23 15 19 -1 30 -7 33 -21 6
-21 37 -29 32 -7 -4 21 7 13 22 -15 l15 -28 1 28 c0 15 -5 27 -12 27 -9 0 -9
3 -1 11 6 6 9 18 6 25 -5 13 18 20 29 9 2 -3 1 -31 -3 -62 -7 -53 -6 -61 24
-110 17 -29 37 -55 44 -57 10 -4 10 -1 1 14 -16 25 -5 35 22 20 11 -6 26 -9
33 -6 7 2 4 5 -7 5 -39 2 -134 131 -95 131 6 0 8 9 4 21 -6 17 -3 20 12 17 12
-2 18 -12 18 -31 -1 -15 3 -27 7 -27 26 0 134 -143 155 -205 5 -17 13 -29 17
-28 14 4 125 257 126 286 0 15 5 27 10 27 6 0 11 -12 11 -27 2 -24 2 -25 6 -5
5 24 23 31 23 8 0 -14 22 -27 43 -25 7 0 2 4 -11 10 -19 7 -21 11 -10 23 11
12 16 9 32 -15 19 -30 54 -49 136 -75 67 -20 83 -16 25 7 -64 27 -81 39 -63
50 10 7 9 9 -4 9 -10 0 -18 6 -18 13 0 10 20 14 80 14 44 0 80 -2 80 -6 0 -3
10 -17 21 -31 13 -16 7 3 -16 50 -53 110 -63 128 -122 206 -29 40 -53 74 -53
76 0 3 35 -1 78 -8 42 -7 102 -15 133 -19 47 -5 68 -15 130 -60 67 -49 107
-64 78 -29 -18 22 -4 27 25 9 23 -15 26 -16 26 -2 0 19 2 18 -135 116 -60 43
-127 95 -147 115 -41 40 -50 43 -72 20 -23 -22 -21 -27 32 -79 l47 -47 -50 7
c-27 3 -85 15 -128 27 -59 16 -77 24 -75 36 2 9 18 19 36 23 40 8 44 12 36 33
-4 10 -18 16 -40 16 -31 0 -34 3 -34 30 0 25 7 33 43 51 23 12 68 37 99 56 65
39 102 39 92 -1 -3 -15 4 -34 26 -61 18 -22 35 -46 39 -54 5 -7 26 -14 49 -14
22 0 39 -4 36 -9 -3 -4 2 -18 10 -30 13 -18 16 -19 16 -5 0 9 -5 17 -11 17 -8
0 -9 4 0 13 6 8 9 16 6 19 -3 2 13 15 35 27 56 31 64 50 49 119 -14 70 -26 95
-44 89 -8 -4 -15 6 -19 26 -4 19 -26 50 -59 81 l-52 51 -6 95 c-6 107 -10 119
-54 175 -42 54 -55 143 -51 350 4 185 16 236 70 291 l36 37 0 -26 c0 -15 5
-27 10 -27 6 0 10 24 10 54 0 44 5 61 24 83 l24 28 7 -47 c8 -53 0 -102 -15
-93 -6 3 -10 -6 -10 -21 0 -22 3 -24 14 -15 10 8 16 9 21 1 3 -6 11 -8 16 -5
5 4 9 2 9 -4 0 -5 -8 -12 -17 -14 -13 -3 -12 -5 5 -6 16 -1 26 6 29 20 5 16
11 19 32 14 21 -5 24 -4 14 6 -17 17 -17 68 0 75 11 4 12 18 5 67 -5 34 -13
75 -18 92 -5 16 -14 59 -21 95 -6 35 -17 73 -25 84 -8 11 -14 33 -14 48 0 15
-4 30 -10 33 -6 4 -10 -9 -10 -33z m-53 -254 c-3 -7 -5 -2 -5 12 0 14 2 19 5
13 2 -7 2 -19 0 -25z m-87 -8 c0 -11 -4 -20 -9 -20 -14 0 -23 18 -16 30 10 17
25 11 25 -10z m160 -5 c0 -14 -4 -25 -10 -25 -5 0 -10 11 -10 25 0 14 5 25 10
25 6 0 10 -11 10 -25z m-102 -39 c-1 -14 -6 -22 -10 -20 -12 7 -10 44 2 44 5
0 9 -11 8 -24z m152 -6 c0 -20 -19 -39 -21 -21 -1 6 -2 17 -3 24 -3 18 4 28
15 22 5 -4 9 -15 9 -25z m-792 -134 c81 1 82 1 88 -25 4 -14 13 -34 21 -43 8
-9 17 -43 20 -76 8 -86 -16 -150 -72 -196 -67 -55 -91 -56 -154 -6 -73 57 -91
101 -84 199 3 43 12 83 19 92 8 8 14 25 14 36 0 28 9 34 39 25 14 -4 63 -6
109 -6z m153 -209 c-10 -9 -11 -8 -5 6 3 10 9 15 12 12 3 -3 0 -11 -7 -18z
m-365 -5 c6 -4 16 -17 23 -30 11 -20 9 -25 -11 -42 -13 -11 -30 -19 -38 -17
-19 3 -25 49 -10 77 11 21 19 24 36 12z m430 -30 c-3 -2 -1 -13 4 -23 21 -39
-13 -65 -44 -33 -19 18 -22 49 -4 38 8 -5 9 -2 5 10 -5 13 -3 17 7 13 11 -4
13 -1 9 11 -6 15 -5 15 10 3 10 -8 15 -16 13 -19z m33 -94 c-2 -13 1 -30 6
-38 5 -8 11 -60 13 -115 l4 -100 -36 -34 c-22 -21 -62 -43 -103 -58 l-68 -23
56 4 c31 2 61 6 67 10 6 3 14 1 17 -4 5 -7 12 -5 21 7 13 16 14 15 8 -12 -9
-46 -25 -94 -40 -123 -8 -15 -14 -35 -14 -44 0 -9 -5 -20 -11 -23 -6 -4 -8
-13 -5 -20 2 -7 -2 -16 -11 -19 -21 -8 -31 3 -14 13 7 5 10 14 7 20 -13 20
-23 11 -21 -20 1 -22 -4 -35 -22 -46 -22 -15 -25 -14 -38 3 -13 17 -14 18 -15
2 0 -10 -7 -18 -16 -18 -26 0 -54 20 -48 34 7 19 -6 24 -36 15 -24 -7 -24 -7
-2 -8 21 -1 33 -30 12 -32 -39 -5 -45 -3 -44 19 0 16 -5 22 -20 22 -38 0 -64
12 -73 32 -8 19 -10 19 -25 4 -9 -9 -21 -16 -27 -16 -16 0 -31 35 -31 71 0 28
2 30 18 18 16 -13 16 -12 -1 7 -13 16 -36 105 -37 143 0 2 6 -2 13 -8 8 -6 17
-8 20 -5 3 4 24 -1 47 -10 43 -17 115 -22 106 -7 -3 4 -24 11 -46 15 -53 8
-101 32 -123 62 -20 27 -25 131 -12 236 l7 58 37 -30 c33 -28 37 -29 48 -13
15 19 17 18 30 -22 6 -21 22 -36 53 -52 25 -12 51 -27 58 -33 14 -12 52 -4 52
11 0 5 8 9 18 9 9 0 30 9 46 19 21 14 29 28 32 57 2 20 9 42 15 48 7 6 9 6 6
1 -3 -6 1 -19 9 -30 14 -18 15 -18 56 12 52 38 60 40 57 11z m-69 -2 c0 -2 -7
-7 -16 -10 -8 -3 -12 -2 -9 4 6 10 25 14 25 6z m-296 -44 c3 -5 -1 -9 -9 -9
-8 0 -12 4 -9 9 3 4 7 8 9 8 2 0 6 -4 9 -8z m41 -52 c3 -5 1 -10 -4 -10 -6 0
-11 5 -11 10 0 6 2 10 4 10 3 0 8 -4 11 -10z m50 -10 c3 -5 1 -10 -4 -10 -6 0
-11 5 -11 10 0 6 2 10 4 10 3 0 8 -4 11 -10z m-152 -504 c-8 -15 -11 -15 -28
4 -16 18 -17 23 -5 30 21 13 45 -13 33 -34z m62 14 c18 0 8 -37 -12 -44 -22
-9 -33 2 -33 31 0 19 4 24 16 19 9 -3 22 -6 29 -6z m180 -77 c0 -7 -3 -13 -7
-13 -5 0 -21 0 -38 0 -32 0 -41 16 -12 22 32 7 57 3 57 -9z m-175 -3 c0 -12
-24 -12 -60 0 -21 7 -19 8 18 9 23 1 42 -3 42 -9z m80 0 c0 -5 -13 -10 -30
-10 -16 0 -30 5 -30 10 0 6 14 10 30 10 17 0 30 -4 30 -10z m140 0 c0 -5 -7
-10 -15 -10 -8 0 -15 5 -15 10 0 6 7 10 15 10 8 0 15 -4 15 -10z m364 -35 l25
-45 -49 -25 c-27 -14 -54 -25 -59 -25 -7 0 48 140 56 140 1 0 13 -20 27 -45z
m-564 -15 c0 -15 -7 -20 -24 -20 -29 0 -44 19 -25 31 25 16 49 10 49 -11z
m209 -6 c20 -25 20 -44 1 -44 -4 0 -6 8 -3 19 7 28 -26 36 -52 11 -12 -11 -31
-20 -43 -20 -19 0 -20 3 -10 25 11 26 48 35 48 13 0 -7 5 -5 11 5 14 23 24 22
48 -9z m-132 8 c7 -4 9 -13 4 -21 -10 -16 -62 -3 -69 17 -4 13 45 16 65 4z
m-18 -81 c7 -5 12 -14 9 -21 -2 -8 -11 -5 -28 9 -17 14 -20 20 -10 21 8 0 21
-4 29 -9z m51 -21 c0 -5 -7 -10 -15 -10 -8 0 -15 5 -15 10 0 6 7 10 15 10 8 0
15 -4 15 -10z m414 -5 c-4 -8 -8 -15 -10 -15 -2 0 -4 7 -4 15 0 8 4 15 10 15
5 0 7 -7 4 -15z m132 -222 c-3 -4 -13 2 -21 13 -22 29 -18 41 6 15 12 -12 18
-25 15 -28z m34 -18 c0 -8 -4 -15 -10 -15 -5 0 -10 7 -10 15 0 8 5 15 10 15 6
0 10 -7 10 -15z m30 -25 c0 -5 -4 -10 -10 -10 -5 0 -10 5 -10 10 0 6 5 10 10
10 6 0 10 -4 10 -10z m36 -37 c-10 -10 -19 5 -10 18 6 11 8 11 12 0 2 -7 1
-15 -2 -18z m-1081 -3 c0 -7 -6 -14 -13 -16 -7 -1 -8 0 -2 3 5 2 10 9 10 14 0
6 -4 7 -10 4 -5 -3 -10 -1 -10 5 0 7 6 10 13 8 6 -3 12 -11 12 -18z m1117 -15
c0 -5 -5 -11 -11 -13 -6 -2 -11 4 -11 13 0 9 5 15 11 13 6 -2 11 -8 11 -13z
m38 -30 c0 -8 -4 -15 -10 -15 -5 0 -10 7 -10 15 0 8 5 15 10 15 6 0 10 -7 10
-15z m40 -30 c0 -8 -4 -15 -10 -15 -5 0 -10 7 -10 15 0 8 5 15 10 15 6 0 10
-7 10 -15z m-991 -67 l-1 -43 -8 35 c-8 32 -6 50 6 50 2 0 4 -19 3 -42z m51
12 c9 -16 8 -22 -5 -26 -9 -4 -19 -4 -22 0 -4 3 2 6 12 6 17 0 17 1 0 20 -10
11 -13 20 -7 20 6 0 16 -9 22 -20z m260 -200 c4 -3 9 -43 12 -89 l5 -84 -21
25 c-12 14 -38 46 -59 70 -32 39 -36 49 -28 71 5 14 7 28 3 32 -4 4 8 5 26 3
25 -4 36 0 40 11 5 12 8 10 10 -9 2 -14 7 -27 12 -30z m-100 -2 c0 -26 -17
-14 -22 17 -4 20 -3 23 8 14 8 -6 14 -20 14 -31z m169 -23 c1 -17 -1 -17 -9
-5 -5 8 -9 26 -9 40 0 23 1 23 9 5 5 -11 9 -29 9 -40z"/>
<path d="M2433 4219 c-8 -8 -8 -20 -1 -40 11 -33 42 -45 88 -35 26 5 30 3 30
-17 1 -21 1 -21 15 -3 16 21 63 28 83 13 8 -7 12 -5 12 6 0 8 7 17 15 21 19 7
20 45 0 52 -7 3 -29 -5 -47 -19 -18 -13 -39 -22 -45 -20 -7 3 -13 -1 -13 -9
-1 -8 -5 -7 -15 6 -7 10 -19 15 -25 11 -6 -4 -26 5 -45 19 -39 30 -37 30 -52
15z"/>
<path d="M2545 4060 c3 -5 10 -10 16 -10 5 0 9 5 9 10 0 6 -7 10 -16 10 -8 0
-12 -4 -9 -10z"/>
<path d="M2539 3673 c-13 -16 -12 -17 4 -4 16 13 21 21 13 21 -2 0 -10 -8 -17
-17z"/>
<path d="M2633 3653 c-15 -5 -17 -23 -4 -23 5 0 11 7 15 15 3 8 4 15 3 14 -1
0 -8 -3 -14 -6z"/>
<path d="M2627 2553 c-13 -13 -7 -21 13 -16 11 3 17 9 14 14 -6 11 -18 12 -27
2z"/>
<path d="M5055 4797 c-152 -82 -257 -184 -239 -231 8 -20 56 -41 131 -56 61
-12 62 -12 117 20 l56 31 0 135 c0 74 -1 134 -2 134 -2 0 -30 -15 -63 -33z"/>
<path d="M2041 4738 c-1 -15 4 -30 9 -33 12 -7 12 12 0 40 -8 18 -9 17 -9 -7z"/>
<path d="M2171 4705 c-1 -16 3 -36 8 -43 16 -26 22 18 6 46 l-14 27 0 -30z"/>
<path d="M1440 4639 c-30 -5 -83 -19 -117 -30 -57 -20 -62 -24 -65 -53 -4 -38
-39 -45 -48 -8 l-5 23 -55 -29 c-31 -17 -87 -51 -124 -77 -38 -26 -89 -55
-113 -66 -35 -15 -43 -23 -43 -44 0 -34 17 -65 35 -65 8 0 15 9 15 20 0 22 8
24 63 11 21 -5 51 -6 67 -1 20 6 32 4 42 -7 13 -13 21 -12 67 3 36 11 55 24
61 39 11 29 29 40 42 27 7 -7 17 -5 31 9 23 21 48 25 44 7 -3 -15 96 -11 193
8 107 21 112 23 105 42 -3 8 -3 35 1 60 6 38 11 46 40 58 48 20 45 44 -5 44
-33 0 -40 -4 -43 -22 -2 -12 -9 -23 -17 -26 -11 -4 -12 2 -7 23 8 30 12 29
-63 8 -20 -5 -23 -3 -18 10 4 10 10 24 13 32 7 17 -10 18 -96 4z m230 -49 c0
-5 -4 -10 -10 -10 -5 0 -10 5 -10 10 0 6 5 10 10 10 6 0 10 -4 10 -10z m-310
-60 c0 -11 -4 -20 -10 -20 -5 0 -10 9 -10 20 0 11 5 20 10 20 6 0 10 -9 10
-20z m-62 -59 c3 -27 0 -32 -15 -29 -19 3 -28 30 -19 54 10 26 31 10 34 -25z
m273 -24 c-13 -13 -15 11 -4 40 7 16 8 15 11 -6 2 -13 -1 -28 -7 -34z m-125 6
c-11 -11 -19 6 -11 24 8 17 8 17 12 0 3 -10 2 -21 -1 -24z m-358 -45 c-2 -13
-7 -23 -13 -23 -5 0 -11 10 -13 23 -2 15 2 22 13 22 11 0 15 -7 13 -22z m47
-88 c-3 -5 -11 -10 -16 -10 -6 0 -7 5 -4 10 3 6 11 10 16 10 6 0 7 -4 4 -10z"/>
<path d="M3040 4636 c0 -8 5 -18 10 -21 6 -3 10 1 10 9 0 8 -4 18 -10 21 -5 3
-10 -1 -10 -9z"/>
<path d="M1910 4606 c0 -9 5 -16 10 -16 6 0 10 4 10 9 0 6 -4 13 -10 16 -5 3
-10 -1 -10 -9z"/>
<path d="M0 4482 l0 -131 58 -6 c71 -8 102 -22 95 -44 -4 -13 -3 -13 5 -2 7 9
23 12 56 8 26 -3 59 -2 73 4 16 6 29 6 32 1 5 -8 94 -14 183 -13 10 0 20 -4
23 -10 10 -15 32 -10 111 26 41 19 85 37 98 41 12 3 34 18 49 34 l27 28 -77 6
c-104 8 -239 34 -277 53 -17 9 -57 41 -89 72 l-59 56 -154 3 -154 4 0 -130z
m598 -161 c11 -6 10 -10 -3 -15 -10 -3 -25 -1 -33 6 -13 11 -15 10 -9 -4 8
-22 -9 -23 -29 -4 -12 13 -11 15 8 19 39 7 53 7 66 -2z"/>
<path d="M2310 4601 c0 -5 5 -13 10 -16 6 -3 10 -2 10 4 0 5 -4 13 -10 16 -5
3 -10 2 -10 -4z"/>
<path d="M2350 4574 c0 -9 5 -14 12 -12 18 6 21 28 4 28 -9 0 -16 -7 -16 -16z"/>
<path d="M2086 4538 c-4 -21 -14 -42 -23 -47 -14 -7 -15 -12 -4 -24 7 -9 19
-13 27 -10 10 4 14 -3 14 -26 0 -36 -17 -41 -30 -8 -8 20 -9 19 -9 -12 -1 -31
1 -33 26 -26 32 8 46 26 33 39 -6 6 -10 30 -11 56 -1 25 -4 56 -8 70 -7 23 -8
23 -15 -12z"/>
<path d="M2167 4548 c-10 -34 -8 -148 1 -148 5 0 9 25 9 55 0 30 6 62 13 70
11 13 11 19 -2 31 -14 14 -16 13 -21 -8z"/>
<path d="M1972 4471 c5 -67 4 -73 -16 -81 -18 -7 -19 -9 -4 -15 9 -4 14 -13
11 -21 -4 -12 0 -12 28 0 28 12 34 20 36 48 1 18 0 27 -3 21 -14 -31 -25 -9
-23 43 2 46 -1 58 -16 66 -17 10 -18 6 -13 -61z"/>
<path d="M1891 4521 c-10 -7 -10 -13 -2 -30 15 -27 18 -26 23 4 6 29 -2 38
-21 26z"/>
<path d="M5067 4503 c-20 -16 -36 -31 -37 -35 0 -5 20 -8 45 -8 45 0 45 0 45
35 0 19 -4 35 -8 35 -5 0 -25 -12 -45 -27z"/>
<path d="M2315 4510 c-3 -5 -1 -10 4 -10 6 0 11 5 11 10 0 6 -2 10 -4 10 -3 0
-8 -4 -11 -10z"/>
<path d="M2352 4495 c0 -16 2 -22 5 -12 2 9 2 23 0 30 -3 6 -5 -1 -5 -18z"/>
<path d="M3061 4484 c0 -11 3 -14 6 -6 3 7 2 16 -1 19 -3 4 -6 -2 -5 -13z"/>
<path d="M3010 4420 c0 -20 5 -30 15 -30 10 0 15 10 15 30 0 20 -5 30 -15 30
-10 0 -15 -10 -15 -30z"/>
<path d="M4870 4444 c-96 -9 -186 -25 -215 -39 -16 -8 -57 -26 -90 -39 -33
-14 -53 -26 -45 -26 84 -5 98 -5 94 1 -2 4 5 7 16 6 11 -1 20 -8 20 -15 0 -11
8 -13 33 -8 17 4 34 11 35 16 2 6 21 10 43 10 28 0 39 -4 39 -15 0 -18 5 -18
31 -4 15 7 24 7 34 -1 8 -7 20 -8 27 -4 7 5 19 9 28 9 29 3 85 17 95 25 6 4
31 11 58 14 41 6 47 10 47 30 0 20 -6 25 -42 30 -72 9 -161 14 -208 10z"/>
<path d="M1559 4376 c-2 -2 -58 -9 -124 -14 -140 -12 -151 -16 -157 -46 -4
-18 -1 -22 13 -19 9 3 20 14 22 25 7 26 32 17 31 -11 0 -15 3 -18 10 -11 13
13 49 13 41 0 -3 -5 -1 -10 4 -10 6 0 11 6 11 13 0 9 12 12 38 9 28 -2 33 -1
22 7 -13 9 -13 11 1 11 9 0 19 -3 23 -7 10 -11 37 -12 30 -2 -9 16 29 10 48
-8 15 -14 21 -14 27 -4 6 10 11 9 24 -3 13 -13 16 -14 21 -1 3 8 12 15 20 15
28 0 23 34 -7 48 -28 11 -89 17 -98 8z m78 -51 c0 -8 -4 -12 -9 -9 -5 3 -6 10
-3 15 9 13 12 11 12 -6z"/>
<path d="M4324 4370 c-33 -4 -66 -10 -73 -14 -7 -5 -35 -10 -63 -12 -60 -4
-67 -9 -58 -49 l7 -30 7 28 c7 21 14 27 37 27 16 0 29 -5 29 -12 0 -6 3 -8 7
-4 5 4 -1 14 -11 22 -28 20 -5 18 23 -3 14 -9 21 -12 18 -6 -7 12 40 40 50 30
3 -4 -1 -7 -10 -7 -9 0 -18 -4 -21 -8 -2 -4 11 -8 30 -8 20 0 29 3 21 8 -6 4
-7 8 -1 8 5 0 15 -5 20 -10 6 -6 19 -7 29 -4 18 7 18 8 -1 15 -14 6 -11 8 13
6 28 -1 32 -4 27 -22 -4 -18 -3 -18 16 4 33 39 2 52 -96 41z"/>
<path d="M2083 4337 c-23 -10 -33 -57 -12 -57 5 0 7 5 4 10 -3 6 -1 10 5 10 6
0 8 5 5 10 -13 20 14 9 31 -12 16 -23 16 -23 9 7 -9 40 -16 45 -42 32z"/>
<path d="M2163 4310 c0 -25 2 -35 4 -22 2 12 2 32 0 45 -2 12 -4 2 -4 -23z"/>
<path d="M1719 4333 c-6 -33 -4 -73 4 -70 13 4 18 77 6 77 -5 0 -10 -3 -10 -7z"/>
<path d="M4975 4330 c-3 -5 -1 -10 4 -10 6 0 11 5 11 10 0 6 -2 10 -4 10 -3 0
-8 -4 -11 -10z"/>
<path d="M3190 4321 c0 -6 5 -13 10 -16 6 -3 10 1 10 9 0 9 -4 16 -10 16 -5 0
-10 -4 -10 -9z"/>
<path d="M3650 4326 c0 -2 9 -6 20 -9 11 -3 18 -1 14 4 -5 9 -34 13 -34 5z"/>
<path d="M4568 4323 c7 -3 16 -2 19 1 4 3 -2 6 -13 5 -11 0 -14 -3 -6 -6z"/>
<path d="M930 4310 c0 -12 30 -34 37 -26 3 3 1 6 -5 6 -7 0 -12 4 -12 9 0 5 9
7 20 4 11 -3 20 -9 20 -14 0 -5 8 -9 17 -9 15 0 15 2 3 14 -17 16 -80 29 -80
16z"/>
<path d="M3242 4306 c14 -14 58 -31 58 -22 0 4 -59 36 -67 36 -3 0 2 -6 9 -14z"/>
<path d="M3375 4310 c-4 -6 3 -10 14 -10 25 0 27 6 6 13 -8 4 -17 2 -20 -3z"/>
<path d="M1068 4293 c7 -3 16 -2 19 1 4 3 -2 6 -13 5 -11 0 -14 -3 -6 -6z"/>
<path d="M1680 4289 c0 -5 5 -7 10 -4 6 3 10 8 10 11 0 2 -4 4 -10 4 -5 0 -10
-5 -10 -11z"/>
<path d="M2016 4291 c-4 -7 -5 -15 -2 -18 9 -9 19 4 14 18 -4 11 -6 11 -12 0z"/>
<path d="M3820 4266 c0 -2 7 -7 16 -10 8 -3 12 -2 9 4 -6 10 -25 14 -25 6z"/>
<path d="M4130 4250 c0 -5 5 -10 11 -10 5 0 7 5 4 10 -3 6 -8 10 -11 10 -2 0
-4 -4 -4 -10z"/>
<path d="M2076 3195 c-9 -26 -7 -32 5 -12 6 10 9 21 6 23 -2 3 -7 -2 -11 -11z"/>
<path d="M1530 3150 c0 -5 5 -10 10 -10 6 0 10 5 10 10 0 6 -4 10 -10 10 -5 0
-10 -4 -10 -10z"/>
<path d="M1530 3110 c0 -5 5 -10 11 -10 5 0 7 5 4 10 -3 6 -8 10 -11 10 -2 0
-4 -4 -4 -10z"/>
<path d="M2112 3030 c0 -19 2 -27 5 -17 2 9 2 25 0 35 -3 9 -5 1 -5 -18z"/>
<path d="M3160 3042 c0 -14 11 -21 26 -15 21 8 17 23 -6 23 -11 0 -20 -4 -20
-8z"/>
<path d="M1775 3030 c-4 -6 -11 -8 -16 -5 -5 3 -6 -1 -3 -9 8 -21 11 -20 24 4
11 20 6 29 -5 10z"/>
<path d="M1930 3018 c0 -6 3 -9 6 -5 3 3 17 2 30 -3 13 -5 24 -6 24 -1 0 5
-10 11 -22 15 -33 8 -38 7 -38 -6z"/>
<path d="M2105 2980 c3 -5 14 -10 23 -10 15 0 15 2 2 10 -20 13 -33 13 -25 0z"/>
<path d="M1890 2910 c0 -5 5 -10 10 -10 6 0 10 5 10 10 0 6 -4 10 -10 10 -5 0
-10 -4 -10 -10z"/>
<path d="M1862 2892 c-10 -3 -10 -7 -2 -18 12 -14 6 -34 -11 -34 -5 0 -9 7 -9
15 0 18 -2 18 -35 3 -14 -6 -25 -18 -25 -25 0 -8 -4 -12 -10 -8 -5 3 -18 0
-29 -7 -15 -9 -17 -15 -9 -25 7 -9 7 -17 -2 -28 -16 -20 -29 -19 -54 4 -15 13
-27 16 -41 11 -19 -8 -19 -9 3 -9 12 -1 22 -5 22 -11 0 -5 7 -10 16 -10 8 0
12 -4 9 -10 -11 -18 18 -11 54 13 20 13 71 46 113 73 73 46 92 64 68 64 -5 0
-10 -4 -10 -10 0 -15 -28 -12 -32 3 -2 8 -9 12 -16 9z m-39 -48 c9 -10 -4 -34
-19 -34 -8 0 -14 6 -14 13 0 22 19 35 33 21z m-47 -35 c10 -17 -13 -36 -27
-22 -12 12 -4 33 11 33 5 0 12 -5 16 -11z"/>
<path d="M3673 2734 c-50 -48 -90 -111 -103 -164 -7 -27 -10 -54 -8 -60 2 -6
22 2 47 20 24 18 49 29 58 26 12 -5 14 -1 10 14 -3 11 -4 20 -2 20 2 0 93 -45
202 -100 203 -102 253 -121 253 -100 0 6 4 9 9 5 5 -3 12 -2 15 3 3 5 -45 33
-107 63 -61 30 -161 82 -223 117 -61 34 -119 62 -128 62 -9 0 -16 5 -16 10 0
6 4 10 8 10 13 0 30 63 22 84 -6 17 -9 16 -37 -10z"/>
<path d="M3528 2689 c-4 -44 -1 -53 25 -62 12 -5 17 -1 17 13 0 10 8 24 18 29
16 10 16 12 -3 27 -47 37 -53 36 -57 -7z"/>
<path d="M1495 2704 c-19 -14 -19 -16 -2 -28 9 -8 15 -20 12 -28 -4 -11 1 -17
17 -20 23 -4 24 -4 14 44 -11 53 -12 54 -41 32z"/>
<path d="M1572 2692 c4 -21 38 -29 38 -9 0 8 -9 17 -21 20 -15 4 -19 1 -17
-11z"/>
<path d="M1343 2642 c-27 -21 -18 -38 20 -37 29 0 34 12 15 38 -12 15 -15 15
-35 -1z"/>
<path d="M1426 2555 c4 -8 8 -15 10 -15 2 0 4 7 4 15 0 8 -4 15 -10 15 -5 0
-7 -7 -4 -15z"/>
<path d="M2330 2540 c0 -11 4 -20 9 -20 5 0 7 9 4 20 -3 11 -7 20 -9 20 -2 0
-4 -9 -4 -20z"/>
<path d="M3700 2542 c0 -5 11 -14 25 -20 26 -12 33 -4 13 16 -14 14 -38 16
-38 4z"/>
<path d="M2806 2385 c-15 -11 -17 -18 -9 -26 9 -9 22 -8 53 5 22 9 53 16 68
16 21 0 24 2 12 10 -23 15 -102 11 -124 -5z"/>
<path d="M2987 2392 c-15 -2 -25 -7 -23 -11 3 -4 -24 -36 -59 -70 -69 -66 -96
-121 -66 -132 12 -4 17 1 21 19 6 31 21 32 36 3 10 -18 12 -19 17 -6 5 11 14
14 34 10 21 -4 15 1 -19 20 -51 27 -67 64 -28 66 11 1 26 2 32 3 7 0 19 14 26
30 l14 28 19 -28 20 -29 -7 27 c-3 15 -3 32 1 37 8 14 40 -15 55 -49 10 -24
10 -24 5 5 -3 17 -8 38 -11 47 -3 10 2 18 13 20 24 6 -45 14 -80 10z"/>
<path d="M3165 2363 c17 -8 42 -27 58 -41 29 -28 33 -22 16 27 -10 29 -14 31
-57 31 l-47 -1 30 -16z"/>
<path d="M2590 2321 c0 -4 11 -44 25 -87 14 -43 25 -86 26 -94 1 -8 5 4 11 28
8 37 6 50 -19 102 -25 53 -43 75 -43 51z"/>
<path d="M3071 2258 c-1 -15 4 -30 9 -33 12 -7 12 12 0 40 -8 18 -9 17 -9 -7z"/>
<path d="M3034 2165 c8 -8 18 -15 22 -15 3 0 1 7 -6 15 -7 8 -17 15 -22 15 -5
0 -3 -7 6 -15z"/>
<path d="M2793 2131 c-5 -13 -8 -34 -5 -47 5 -30 32 -41 32 -13 0 11 5 17 10
14 15 -9 12 11 -3 27 -8 7 -16 20 -19 28 -4 11 -8 9 -15 -9z"/>
<path d="M2696 1943 c-9 -10 -7 -25 3 -19 5 4 11 0 14 -6 2 -7 8 -10 12 -6 4
4 1 14 -8 22 -8 8 -17 12 -21 9z"/>
<path d="M2757 1889 c4 -13 8 -18 11 -10 2 7 -1 18 -6 23 -8 8 -9 4 -5 -13z"/>
</g>
</svg>
